<?xml version="1.0" encoding="utf-8"?>
<!-- Generator: Adobe Illustrator 23.0.4, SVG Export Plug-In . SVG Version: 6.00 Build 0)  -->
<svg version="1.1" id="Layer_1" xmlns="http://www.w3.org/2000/svg" xmlns:xlink="http://www.w3.org/1999/xlink" x="0px" y="0px"
	 viewBox="0 0 72 72" style="enable-background:new 0 0 72 72;" xml:space="preserve">
<style type="text/css">
	.st0{fill:#FFFFFF;}
</style>
<g id="Twitter">
	<rect width="72" height="72"/>
</g>
<g id="Guides">
</g>
<path class="st0" d="M36,18c-9.9,0-18,8.1-18,18s8.1,18,18,18s18-8.1,18-18C54,26.1,45.9,18,36,18z M53.3,36c0,0.6,0,1.2-0.1,1.8
	l-3.1-0.4c0-0.5,0.1-0.9,0.1-1.4c0-0.5,0-0.9-0.1-1.3l3.1-0.4C53.3,34.9,53.3,35.4,53.3,36z M18.7,36c0-0.6,0-1.2,0.1-1.7l3.1,0.4
	c0,0.5-0.1,0.9-0.1,1.4s0,0.9,0.1,1.4l-3.1,0.4C18.7,37.2,18.7,36.6,18.7,36z M49.4,31.3l2.9-1.1c0.4,1.1,0.7,2.2,0.8,3.4L50.1,34
	C49.9,33.1,49.7,32.2,49.4,31.3z M49.5,36c0,0.9-0.1,1.8-0.3,2.6l-3-0.7c0.3-1.3,0.3-2.6,0-3.9l3-0.7C49.4,34.2,49.5,35.1,49.5,36z
	 M36,45.7c-5.4,0-9.7-4.3-9.7-9.7s4.3-9.7,9.7-9.7s9.7,4.3,9.7,9.7C45.7,41.4,41.4,45.7,36,45.7z M36.3,49.5v-3.1
	c1.3,0,2.6-0.3,3.9-0.9l1.3,2.8C39.9,49.1,38.1,49.5,36.3,49.5L36.3,49.5z M30.4,48.3l1.4-2.8c1.2,0.5,2.5,0.9,3.9,0.9v3.1
	C33.8,49.5,32.1,49,30.4,48.3z M22.5,36c0-0.9,0.1-1.8,0.3-2.7l3,0.7c-0.3,1.3-0.3,2.6,0,3.9l-3,0.7C22.6,37.7,22.5,36.9,22.5,36z
	 M35.6,22.5v3.1c-1.3,0-2.6,0.3-3.8,0.9l-1.3-2.8C32.1,22.9,33.9,22.5,35.6,22.5z M41.6,23.7l-1.4,2.8c-1.2-0.5-2.5-0.8-3.8-0.9
	v-3.1C38.2,22.5,39.9,22.9,41.6,23.7z M49.2,30.7c-0.3-0.8-0.8-1.6-1.3-2.4l2.5-1.7c0.6,1,1.2,2,1.6,3.1L49.2,30.7z M49.1,32.6
	l-3,0.7c-0.3-1.3-0.9-2.5-1.7-3.5l2.4-1.9C47.8,29.3,48.6,30.9,49.1,32.6L49.1,32.6z M43.9,29.2c-0.9-1-1.9-1.8-3.1-2.4l1.4-2.8
	c1.6,0.8,3,1.9,4.1,3.3L43.9,29.2z M43,23.6l1.4-2.7c1,0.6,2,1.2,2.8,2l-2,2.3C44.5,24.6,43.8,24.1,43,23.6z M42.4,23.3
	c-0.8-0.4-1.7-0.7-2.5-1l0.7-3c1.1,0.3,2.2,0.7,3.2,1.2L42.4,23.3z M39.1,22.1c-0.9-0.2-1.8-0.3-2.7-0.4v-3.1c1.2,0,2.3,0.2,3.5,0.4
	L39.1,22.1z M35.7,21.8c-0.9,0-1.8,0.1-2.7,0.3l-0.7-3c1.1-0.2,2.3-0.4,3.4-0.4L35.7,21.8z M32.3,22.3c-0.9,0.2-1.7,0.6-2.6,1
	l-1.4-2.7c1-0.5,2.1-0.9,3.2-1.2L32.3,22.3z M29.1,23.6c-0.8,0.4-1.6,1-2.2,1.5l-2-2.3c0.9-0.8,1.8-1.4,2.9-2L29.1,23.6z M29.8,24
	l1.3,2.8c-1.2,0.6-2.2,1.4-3.1,2.4l-2.4-1.9C26.9,25.9,28.3,24.8,29.8,24L29.8,24z M25.3,27.8l2.4,1.9c-0.8,1.1-1.4,2.2-1.7,3.5
	l-3-0.7C23.4,30.8,24.2,29.2,25.3,27.8z M22.8,30.6L20,29.5c0.4-1.1,1-2.1,1.6-3.1l2.5,1.7C23.6,29,23.2,29.8,22.8,30.6z M22.6,31.3
	c-0.3,0.9-0.5,1.7-0.7,2.7l-3.1-0.4c0.2-1.2,0.4-2.3,0.8-3.4L22.6,31.3z M21.9,38.1c0.1,0.9,0.4,1.8,0.7,2.7l-2.9,1.1
	c-0.4-1.1-0.7-2.2-0.8-3.4L21.9,38.1z M22.8,41.4c0.3,0.8,0.8,1.7,1.3,2.4l-2.5,1.7c-0.6-1-1.2-2-1.6-3.1L22.8,41.4z M22.9,39.3
	l3-0.7c0.3,1.3,0.9,2.5,1.7,3.6l-2.4,1.9C24.1,42.7,23.3,41,22.9,39.3L22.9,39.3z M28,42.7c0.9,1,1.9,1.9,3.1,2.5L29.8,48
	c-1.6-0.8-3-2-4.2-3.3L28,42.7z M29.1,48.4l-1.4,2.7c-1-0.6-2-1.2-2.8-2l2-2.3C27.6,47.5,28.3,48,29.1,48.4L29.1,48.4z M29.7,48.8
	c0.8,0.4,1.7,0.7,2.5,1l-0.7,3c-1.1-0.3-2.2-0.7-3.2-1.2L29.7,48.8z M33,49.9c0.9,0.2,1.8,0.3,2.7,0.3v3.1c-1.2,0-2.3-0.2-3.4-0.4
	L33,49.9z M36.4,50.2c0.9,0,1.8-0.1,2.7-0.3l0.7,3c-1.1,0.3-2.3,0.4-3.4,0.4L36.4,50.2z M39.8,49.7c0.9-0.2,1.7-0.6,2.5-1l1.4,2.7
	c-1,0.5-2.1,0.9-3.2,1.2L39.8,49.7z M42.9,48.4c0.8-0.4,1.5-1,2.2-1.5l2,2.3c-0.9,0.7-1.8,1.4-2.8,2L42.9,48.4z M42.2,48l-1.3-2.8
	c1.2-0.6,2.2-1.5,3.1-2.5l2.4,1.9C45.2,46,43.8,47.2,42.2,48L42.2,48z M46.8,44.1l-2.4-1.9c0.8-1.1,1.4-2.3,1.7-3.6l3,0.7
	C48.7,41.1,47.9,42.7,46.8,44.1z M49.2,41.4l2.9,1.1c-0.4,1.1-1,2.1-1.6,3.1l-2.5-1.8C48.4,43,48.8,42.2,49.2,41.4z M49.4,40.7
	c0.3-0.9,0.5-1.7,0.7-2.6l3.1,0.4c-0.2,1.1-0.4,2.3-0.8,3.4L49.4,40.7z M50.1,26l-2.5,1.7c-0.5-0.7-1.1-1.4-1.8-2l2-2.3
	C48.6,24.2,49.4,25,50.1,26L50.1,26z M24.3,23.3l2,2.3c-0.7,0.6-1.3,1.3-1.8,2L22,25.9C22.7,24.9,23.5,24.1,24.3,23.3z M22,46.1
	l2.5-1.7c0.5,0.7,1.1,1.4,1.8,2l-2,2.3C23.4,47.9,22.7,47.1,22,46.1z M47.7,48.7l-2-2.3c0.7-0.6,1.3-1.3,1.8-2l2.5,1.8
	C49.3,47.1,48.6,47.9,47.7,48.7L47.7,48.7z"/>
</svg>
